# xmcd
#
# Track frame offsets: 
#        150
#        13650
#        30675
#        56700
#        72039
#        98364
#        114603
#        139503
#        155592
#        181017
#        227817
#
# Disc length: 3363 seconds
#
# Revision: 0
# Processed by: cddbd v1.5.2PL0 Copyright (c) Steve Scherf et al.
# Submitted via: ExactAudioCopy v0.99pb5
#
DISCID=840d210b
DTITLE=หงา คาราวาน - หนังสือในชื่อเธอ
DYEAR=1900
DGENRE=Folklore
TTITLE0=ยังหนุ่ม
TTITLE1=คนเดินทาง
TTITLE2=เส้นทางเมล็ดข้าว
TTITLE3=ชาวนา
TTITLE4=แม่เรวา
TTITLE5=วันเสาร์
TTITLE6=เยี่ยมยามถามข่าว
TTITLE7=แม่นางรัฐฉาน
TTITLE8=ปาย
TTITLE9=เพลงไม่มีชื่อ
TTITLE10=รงศ์ วงษ์สวรรค์
EXTD=
EXTT0=
EXTT1=
EXTT2=
EXTT3=
EXTT4=
EXTT5=
EXTT6=
EXTT7=
EXTT8=
EXTT9=
EXTT10=
PLAYORDER=
